<svg width="50" height="52" viewBox="0 0 50 52" fill="none" xmlns="http://www.w3.org/2000/svg">
    <path fill-rule="evenodd" clip-rule="evenodd"
        d="M18.0778 16.7467C18.5206 16.7467 18.9728 16.9162 19.3049 17.2577L24.6273 22.5801L26.1261 21.0813L19.2197 14.175C20.7356 11.1263 20.5652 7.37083 18.4789 4.3903C16.4342 1.48641 13.0875 0.0557555 9.7919 0.345293L14.1954 6.62059C14.7992 7.49005 14.5863 8.67375 13.7262 9.27837L8.96672 12.6251C8.09811 13.2288 6.91356 13.0253 6.30979 12.1559L1.89776 5.87205C0.510532 8.88664 0.714911 12.522 2.74934 15.4259C5.16868 18.8672 9.42658 20.2382 13.2664 19.1397L20.6674 26.5399L22.1739 25.0411L16.8515 19.7187C16.1711 19.0366 16.1711 17.9389 16.8515 17.2577C17.1845 16.9162 17.635 16.7467 18.0778 16.7467ZM48.1811 36.6388C45.8223 33.2078 41.6419 31.7856 37.8353 32.7905L30.7331 25.6883L29.2335 27.1871L34.0032 31.9551C34.6836 32.6372 34.6836 33.7349 34.0032 34.417C33.6625 34.7576 33.2197 34.928 32.7675 34.928C32.3247 34.928 31.8827 34.7576 31.5413 34.417L26.7733 29.6397L25.2745 31.1469L31.7627 37.6351C30.1711 40.6838 30.2724 44.4827 32.3511 47.5143C34.3608 50.4438 37.699 51.8991 41.0032 51.653L36.6593 45.3258C36.064 44.4563 36.2854 43.282 37.1532 42.6765L41.9484 39.3817C42.817 38.7856 44.0007 39.007 44.6045 39.8671L48.939 46.1944C50.3612 43.2053 50.1917 39.5597 48.1811 36.6388V36.6388Z"
        fill="#D16527" />
    <path fill-rule="evenodd" clip-rule="evenodd"
        d="M23.5962 34.7574C23.2734 35.0802 22.748 35.0802 22.4253 34.7574L17.0552 29.3873C16.7316 29.0637 16.7316 28.54 17.0552 28.2164L17.343 27.9286C17.6649 27.6058 18.1904 27.6058 18.514 27.9286L23.884 33.2995C24.2068 33.6223 24.2068 34.1477 23.884 34.4704L23.5962 34.7574"
        fill="#D16527" />
    <path fill-rule="evenodd" clip-rule="evenodd"
        d="M21.2128 35.9495L9.47713 48.7487L8.03029 50.3242C7.57896 50.7755 7.06716 51.1153 6.50511 51.3367C6.07932 51.5164 5.64502 51.6177 5.20305 51.6526C5.05828 51.6697 4.91351 51.6782 4.76023 51.6782C3.57653 51.6858 2.39198 51.2354 1.48931 50.3318C-0.32456 48.5188 -0.32456 45.5885 1.48931 43.784L15.8555 30.6016L21.2128 35.9495"
        fill="#D16527" />
    <path fill-rule="evenodd" clip-rule="evenodd"
        d="M45.2522 8.60434L43.0219 12.1137L41.0463 12.9568L23.324 30.6858L21.127 28.4887L38.8569 10.7597L39.6999 8.79254L43.2093 6.56055L43.3958 6.74875L40.8078 8.91176C40.3556 9.3631 40.56 10.3339 41.0122 10.7938C41.4797 11.2536 42.4761 11.5253 42.9368 11.0663L45.0572 8.40933L45.2522 8.60434"
        fill="#D16527" />
    </svg>