<svg width="37" height="54" viewBox="0 0 37 54" fill="none" xmlns="http://www.w3.org/2000/svg">
    <path fill-rule="evenodd" clip-rule="evenodd"
        d="M22.227 24.7197L21.2307 12.4655L30.7428 24.3876L31.2708 25.051L22.227 24.7197ZM5.80003 47.5932H30.4277V29.6078H5.80003V47.5932ZM35.9119 25.051L35.8012 24.9148L35.7757 24.8901L21.0263 7.0154L20.6175 6.52148C20.328 6.26601 19.9448 6.12124 19.5275 6.12124H14.418V4.87793H6.47278V6.12124H2.21488C1.27814 6.12124 0.511719 6.87914 0.511719 7.8244V51.3904C0.511719 52.3365 1.27814 53.0936 2.21488 53.0936H34.5749C35.5117 53.0936 36.2781 52.3365 36.2781 51.3904V26.0908C36.2781 25.6897 36.1418 25.332 35.9119 25.051V25.051Z"
        fill="#D16527" />
    <path fill-rule="evenodd" clip-rule="evenodd"
        d="M21.0267 7.01455L20.6179 6.52063C20.7891 6.65603 20.9253 6.8272 21.0267 7.01455"
        fill="#EA000D" />
    <path fill-rule="evenodd" clip-rule="evenodd" d="M5.80078 4.02412H15.0975V0.369141H5.80078V4.02412Z"
        fill="#D16527" />
    <path fill-rule="evenodd" clip-rule="evenodd"
        d="M17.5609 43.6936C17.2713 44.0853 16.7008 43.7361 16.3601 43.5488C15.9514 43.3274 15.1594 42.6802 15.2275 42.1181C15.3467 41.3262 16.1387 41.8627 16.59 42.2365C17.1862 42.7824 17.6886 43.5318 17.5609 43.6936ZM21.9295 38.5321L21.8613 38.4308L18.4039 32.2568L14.7421 38.7629C14.4015 39.359 14.2227 40.0488 14.2227 40.7812C14.2227 43.0881 16.0961 44.9454 18.4039 44.9454C20.7117 44.9454 22.5767 43.0881 22.5767 40.7812C22.5767 39.9543 22.3382 39.1793 21.9295 38.5321V38.5321Z"
        fill="#D16527" />
    </svg>