<svg xmlns="http://www.w3.org/2000/svg" width="35" height="36" viewBox="0 0 35 36" fill="none">
                                <path fill-rule="evenodd" clip-rule="evenodd"
                                    d="M19.875 16.7146L19.1925 8.73483L25.7083 16.4983L26.07 16.9303L19.875 16.7146ZM8.6225 31.6093H25.4925V19.8976H8.6225V31.6093ZM29.2492 16.9303L29.1733 16.8415L29.1558 16.8255L19.0525 5.18582L18.7725 4.86419C18.5742 4.69783 18.3117 4.60356 18.0258 4.60356H14.5258V3.79395H9.08333V4.60356H6.16667C5.525 4.60356 5 5.0971 5 5.71263V34.082C5 34.698 5.525 35.191 6.16667 35.191H28.3333C28.975 35.191 29.5 34.698 29.5 34.082V17.6074C29.5 17.3462 29.4067 17.1133 29.2492 16.9303V16.9303Z"
                                    fill="#D16527" />
                                <path fill-rule="evenodd" clip-rule="evenodd"
                                    d="M19.0528 5.18515L18.7728 4.86352C18.89 4.95169 18.9833 5.06315 19.0528 5.18515" fill="#D16527" />
                                <path fill-rule="evenodd" clip-rule="evenodd" d="M8.62305 3.23748H14.9913V0.857422H8.62305V3.23748Z"
                                    fill="#D16527" />
                            </svg>