<svg xmlns="http://www.w3.org/2000/svg" width="36" height="53" viewBox="0 0 36 53" fill="none">
    <path fill-rule="evenodd" clip-rule="evenodd"
        d="M21.7153 24.3506L20.7189 12.0964L30.2311 24.0185L30.7591 24.6819L21.7153 24.3506ZM5.28831 47.2241H29.916V29.2387H5.28831V47.2241ZM35.4002 24.6819L35.2895 24.5456L35.2639 24.5209L20.5146 6.64626L20.1058 6.15234C19.8163 5.89686 19.4331 5.7521 19.0158 5.7521H13.9063V4.50879H5.96106V5.7521H1.70316C0.766422 5.7521 0 6.51 0 7.45526V51.0212C0 51.9674 0.766422 52.7244 1.70316 52.7244H34.0632C34.9999 52.7244 35.7664 51.9674 35.7664 51.0212V25.7217C35.7664 25.3206 35.6301 24.9629 35.4002 24.6819V24.6819Z"
        fill="#EDEDED" />
    <path fill-rule="evenodd" clip-rule="evenodd"
        d="M20.5149 6.6454L20.1062 6.15149C20.2773 6.28689 20.4136 6.45806 20.5149 6.6454"
        fill="#EDEDED" />
    <path fill-rule="evenodd" clip-rule="evenodd" d="M5.28906 3.65498H14.5858V0H5.28906V3.65498Z"
        fill="#EDEDED" />
    <path fill-rule="evenodd" clip-rule="evenodd"
        d="M17.0491 43.3244C16.7596 43.7161 16.189 43.367 15.8484 43.1796C15.4396 42.9582 14.6477 42.311 14.7158 41.749C14.835 40.957 15.627 41.4935 16.0783 41.8674C16.6744 42.4132 17.1769 43.1626 17.0491 43.3244ZM21.4177 38.163L21.3496 38.0617L17.8922 31.8877L14.2304 38.3938C13.8898 38.9899 13.7109 39.6797 13.7109 40.412C13.7109 42.7189 15.5844 44.5762 17.8922 44.5762C20.2 44.5762 22.0649 42.7189 22.0649 40.412C22.0649 39.5851 21.8265 38.8102 21.4177 38.163V38.163Z"
        fill="#EDEDED" />
</svg>