<svg width="25" height="52" viewBox="0 0 25 52" fill="none" xmlns="http://www.w3.org/2000/svg">
    <path fill-rule="evenodd" clip-rule="evenodd"
        d="M14.9155 20.6709L12.0287 37.315H3.46094L8.33794 20.6709H14.9155" fill="#D16527" />
    <path fill-rule="evenodd" clip-rule="evenodd"
        d="M0.394531 6.81991H24.5292V0.382812H0.394531V6.81991Z" fill="#D16527" />
    <path fill-rule="evenodd" clip-rule="evenodd"
        d="M0.394531 11.0577H24.5292V8.57617H0.394531V11.0577Z" fill="#D16527" />
    <path fill-rule="evenodd" clip-rule="evenodd"
        d="M12.5278 18.5185C11.4353 18.5185 10.5386 17.6439 10.5147 16.5513V16.5045C10.5147 15.3889 11.4199 14.4914 12.5278 14.4914C13.6434 14.4914 14.5495 15.3889 14.5495 16.5045C14.5495 16.8562 14.455 17.1917 14.2991 17.4796C13.9483 18.1038 13.2926 18.5185 12.5278 18.5185ZM0.394531 12.8223V24.1823H6.4416L7.37834 20.6789C7.37834 20.2429 7.68235 19.8912 8.08004 19.8912H16.8666C17.2567 19.8912 17.5692 20.2429 17.5692 20.6789L18.6218 24.1823H24.5292V12.8223H0.394531V12.8223Z"
        fill="#D16527" />
    <path fill-rule="evenodd" clip-rule="evenodd"
        d="M7.15182 49.9642C4.24878 49.9642 1.8848 47.6079 1.8848 44.6972C1.8848 41.7865 4.24878 39.4293 7.15182 39.4293C10.0625 39.4293 12.4188 41.7865 12.4188 44.6972C12.4188 47.6079 10.0625 49.9642 7.15182 49.9642ZM0.394531 51.6179H13.9168V38.0957H0.394531V51.6179Z"
        fill="#D16527" />
    <path fill-rule="evenodd" clip-rule="evenodd"
        d="M7.14137 48.0089C5.53444 48.0089 4.18468 46.8465 3.89515 45.317H2.46875C2.7651 47.6265 4.74673 49.414 7.14137 49.414C9.53772 49.414 11.5202 47.6265 11.8165 45.317H10.3876C10.0998 46.8465 8.75001 48.0089 7.14137 48.0089ZM7.14137 41.3845C8.75001 41.3845 10.0998 42.5392 10.3876 44.0695H11.8165C11.5202 41.7591 9.53772 39.9717 7.14137 39.9717C4.74673 39.9717 2.7651 41.7591 2.46875 44.0695H3.89515C4.18468 42.5392 5.53444 41.3845 7.14137 41.3845V41.3845Z"
        fill="#D16527" />
    </svg>