<svg width="55" height="45" viewBox="0 0 55 45" fill="none" xmlns="http://www.w3.org/2000/svg">
    <path fill-rule="evenodd" clip-rule="evenodd"
        d="M18.745 18.5304C18.745 18.7774 18.5492 18.9733 18.3022 18.9733C18.0638 18.9733 17.8594 18.7774 17.8594 18.5304C17.8594 18.2826 18.0638 18.0791 18.3022 18.0791C18.5492 18.0791 18.745 18.2826 18.745 18.5304"
        fill="#D16527" />
    <path fill-rule="evenodd" clip-rule="evenodd"
        d="M33.6306 22.9847C32.9161 22.9847 32.3362 23.5638 32.3362 24.2791C32.3362 24.9936 32.9161 25.5735 33.6306 25.5735C34.3459 25.5735 34.925 24.9936 34.925 24.2791C34.925 23.5638 34.3459 22.9847 33.6306 22.9847ZM30.1485 30.8704C27.7888 29.6186 26.1793 27.1319 26.1793 24.2791C26.1793 21.8947 27.3034 19.7657 29.0576 18.4031L23.1987 17.1164C23.3358 17.5686 23.404 18.0361 23.404 18.5309C23.404 21.3403 21.1209 23.6319 18.3022 23.6319C18.0211 23.6319 17.7401 23.6055 17.477 23.5638L19.1367 29.0906C19.8691 28.5285 20.7811 28.187 21.7766 28.187C24.161 28.187 26.0941 30.1295 26.0941 32.5131V32.5225L30.1485 30.8704ZM21.7766 32.2926C21.6489 32.2926 21.5552 32.3862 21.5552 32.5131C21.5552 32.6332 21.6574 32.7354 21.7766 32.7354C21.8958 32.7354 21.9895 32.6332 21.9895 32.5131C21.9895 32.3862 21.8958 32.2926 21.7766 32.2926ZM33.6306 22.9847C32.9161 22.9847 32.3362 23.5638 32.3362 24.2791C32.3362 24.9936 32.9161 25.5735 33.6306 25.5735C34.3459 25.5735 34.925 24.9936 34.925 24.2791C34.925 23.5638 34.3459 22.9847 33.6306 22.9847ZM33.6306 22.9847C32.9161 22.9847 32.3362 23.5638 32.3362 24.2791C32.3362 24.9936 32.9161 25.5735 33.6306 25.5735C34.3459 25.5735 34.925 24.9936 34.925 24.2791C34.925 23.5638 34.3459 22.9847 33.6306 22.9847ZM30.1485 30.8704C27.7888 29.6186 26.1793 27.1319 26.1793 24.2791C26.1793 21.8947 27.3034 19.7657 29.0576 18.4031L23.1987 17.1164C23.3358 17.5686 23.404 18.0361 23.404 18.5309C23.404 21.3403 21.1209 23.6319 18.3022 23.6319C18.0211 23.6319 17.7401 23.6055 17.477 23.5638L19.1367 29.0906C19.8691 28.5285 20.7811 28.187 21.7766 28.187C24.161 28.187 26.0941 30.1295 26.0941 32.5131V32.5225L30.1485 30.8704ZM33.6306 22.9847C32.9161 22.9847 32.3362 23.5638 32.3362 24.2791C32.3362 24.9936 32.9161 25.5735 33.6306 25.5735C34.3459 25.5735 34.925 24.9936 34.925 24.2791C34.925 23.5638 34.3459 22.9847 33.6306 22.9847ZM33.6306 22.9847C32.9161 22.9847 32.3362 23.5638 32.3362 24.2791C32.3362 24.9936 32.9161 25.5735 33.6306 25.5735C34.3459 25.5735 34.925 24.9936 34.925 24.2791C34.925 23.5638 34.3459 22.9847 33.6306 22.9847ZM30.1485 30.8704C27.7888 29.6186 26.1793 27.1319 26.1793 24.2791C26.1793 21.8947 27.3034 19.7657 29.0576 18.4031L23.1987 17.1164C23.3358 17.5686 23.404 18.0361 23.404 18.5309C23.404 21.3403 21.1209 23.6319 18.3022 23.6319C18.0211 23.6319 17.7401 23.6055 17.477 23.5638L19.1367 29.0906C19.8691 28.5285 20.7811 28.187 21.7766 28.187C24.161 28.187 26.0941 30.1295 26.0941 32.5131V32.5225L30.1485 30.8704ZM21.7766 32.2926C21.6489 32.2926 21.5552 32.3862 21.5552 32.5131C21.5552 32.6332 21.6574 32.7354 21.7766 32.7354C21.8958 32.7354 21.9895 32.6332 21.9895 32.5131C21.9895 32.3862 21.8958 32.2926 21.7766 32.2926ZM30.1485 30.8704C27.7888 29.6186 26.1793 27.1319 26.1793 24.2791C26.1793 21.8947 27.3034 19.7657 29.0576 18.4031L23.1987 17.1164C23.3358 17.5686 23.404 18.0361 23.404 18.5309C23.404 21.3403 21.1209 23.6319 18.3022 23.6319C18.0211 23.6319 17.7401 23.6055 17.477 23.5638L19.1367 29.0906C19.8691 28.5285 20.7811 28.187 21.7766 28.187C24.161 28.187 26.0941 30.1295 26.0941 32.5131V32.5225L30.1485 30.8704ZM33.6306 22.9847C32.9161 22.9847 32.3362 23.5638 32.3362 24.2791C32.3362 24.9936 32.9161 25.5735 33.6306 25.5735C34.3459 25.5735 34.925 24.9936 34.925 24.2791C34.925 23.5638 34.3459 22.9847 33.6306 22.9847ZM33.6306 22.9847C32.9161 22.9847 32.3362 23.5638 32.3362 24.2791C32.3362 24.9936 32.9161 25.5735 33.6306 25.5735C34.3459 25.5735 34.925 24.9936 34.925 24.2791C34.925 23.5638 34.3459 22.9847 33.6306 22.9847ZM30.1485 30.8704C27.7888 29.6186 26.1793 27.1319 26.1793 24.2791C26.1793 21.8947 27.3034 19.7657 29.0576 18.4031L23.1987 17.1164C23.3358 17.5686 23.404 18.0361 23.404 18.5309C23.404 21.3403 21.1209 23.6319 18.3022 23.6319C18.0211 23.6319 17.7401 23.6055 17.477 23.5638L19.1367 29.0906C19.8691 28.5285 20.7811 28.187 21.7766 28.187C24.161 28.187 26.0941 30.1295 26.0941 32.5131V32.5225L30.1485 30.8704ZM21.7766 32.2926C21.6489 32.2926 21.5552 32.3862 21.5552 32.5131C21.5552 32.6332 21.6574 32.7354 21.7766 32.7354C21.8958 32.7354 21.9895 32.6332 21.9895 32.5131C21.9895 32.3862 21.8958 32.2926 21.7766 32.2926ZM21.7766 32.2926C21.6489 32.2926 21.5552 32.3862 21.5552 32.5131C21.5552 32.6332 21.6574 32.7354 21.7766 32.7354C21.8958 32.7354 21.9895 32.6332 21.9895 32.5131C21.9895 32.3862 21.8958 32.2926 21.7766 32.2926ZM30.1485 30.8704C27.7888 29.6186 26.1793 27.1319 26.1793 24.2791C26.1793 21.8947 27.3034 19.7657 29.0576 18.4031L23.1987 17.1164C23.3358 17.5686 23.404 18.0361 23.404 18.5309C23.404 21.3403 21.1209 23.6319 18.3022 23.6319C18.0211 23.6319 17.7401 23.6055 17.477 23.5638L19.1367 29.0906C19.8691 28.5285 20.7811 28.187 21.7766 28.187C24.161 28.187 26.0941 30.1295 26.0941 32.5131V32.5225L30.1485 30.8704ZM33.6306 22.9847C32.9161 22.9847 32.3362 23.5638 32.3362 24.2791C32.3362 24.9936 32.9161 25.5735 33.6306 25.5735C34.3459 25.5735 34.925 24.9936 34.925 24.2791C34.925 23.5638 34.3459 22.9847 33.6306 22.9847ZM21.5552 32.5131C21.5552 32.6332 21.6574 32.7354 21.7766 32.7354C21.8958 32.7354 21.9895 32.6332 21.9895 32.5131C21.9895 32.3862 21.8958 32.2926 21.7766 32.2926C21.6489 32.2926 21.5552 32.3862 21.5552 32.5131ZM18.3022 23.6319C18.0211 23.6319 17.7401 23.6055 17.477 23.5638L19.1367 29.0906C19.8691 28.5285 20.7811 28.187 21.7766 28.187C24.161 28.187 26.0941 30.1295 26.0941 32.5131V32.5225L30.1485 30.8704C27.7888 29.6186 26.1793 27.1319 26.1793 24.2791C26.1793 21.8947 27.3034 19.7657 29.0576 18.4031L23.1987 17.1164C23.3358 17.5686 23.404 18.0361 23.404 18.5309C23.404 21.3403 21.1209 23.6319 18.3022 23.6319ZM34.925 24.2791C34.925 23.5638 34.3459 22.9847 33.6306 22.9847C32.9161 22.9847 32.3362 23.5638 32.3362 24.2791C32.3362 24.9936 32.9161 25.5735 33.6306 25.5735C34.3459 25.5735 34.925 24.9936 34.925 24.2791ZM32.8727 9.89576L32.1667 9.41802L32.234 9.3252H22.3301L22.3983 9.41802L21.5041 10.032L15.9186 13.8982L15.9773 13.9834C16.6756 13.6257 17.4591 13.4213 18.3021 13.4213C19.0856 13.4213 19.835 13.5993 20.4907 13.9153L33.8699 16.8354C37.8715 16.9554 41.0819 20.2417 41.0819 24.2791C41.0819 27.43 39.1241 30.1295 36.3565 31.2281L36.1938 31.2877L33.026 32.4714L24.3143 36.0055C23.6075 36.5335 22.7219 36.84 21.7766 36.84C19.393 36.84 17.4506 34.8984 17.4506 32.5131C17.4506 32.4629 17.4506 32.4203 17.4591 32.3692L14.2154 21.5796C13.5674 20.728 13.1927 19.6712 13.1927 18.5309C13.1927 17.1087 13.7717 15.8228 14.717 14.9031L14.6412 14.7924L8.84961 18.8034L18.7961 44.2404H35.7681L45.7145 18.8119V18.8034L32.8727 9.89576ZM33.6306 22.9847C32.9161 22.9847 32.3362 23.5638 32.3362 24.2791C32.3362 24.9936 32.9161 25.5735 33.6306 25.5735C34.3459 25.5735 34.925 24.9936 34.925 24.2791C34.925 23.5638 34.3459 22.9847 33.6306 22.9847ZM30.1485 30.8704C27.7888 29.6186 26.1793 27.1319 26.1793 24.2791C26.1793 21.8947 27.3034 19.7657 29.0576 18.4031L23.1987 17.1164C23.3358 17.5686 23.404 18.0361 23.404 18.5309C23.404 21.3403 21.1209 23.6319 18.3022 23.6319C18.0211 23.6319 17.7401 23.6055 17.477 23.5638L19.1367 29.0906C19.8691 28.5285 20.7811 28.187 21.7766 28.187C24.161 28.187 26.0941 30.1295 26.0941 32.5131V32.5225L30.1485 30.8704ZM21.7766 32.2926C21.6489 32.2926 21.5552 32.3862 21.5552 32.5131C21.5552 32.6332 21.6574 32.7354 21.7766 32.7354C21.8958 32.7354 21.9895 32.6332 21.9895 32.5131C21.9895 32.3862 21.8958 32.2926 21.7766 32.2926ZM21.7766 32.2926C21.6489 32.2926 21.5552 32.3862 21.5552 32.5131C21.5552 32.6332 21.6574 32.7354 21.7766 32.7354C21.8958 32.7354 21.9895 32.6332 21.9895 32.5131C21.9895 32.3862 21.8958 32.2926 21.7766 32.2926ZM30.1485 30.8704C27.7888 29.6186 26.1793 27.1319 26.1793 24.2791C26.1793 21.8947 27.3034 19.7657 29.0576 18.4031L23.1987 17.1164C23.3358 17.5686 23.404 18.0361 23.404 18.5309C23.404 21.3403 21.1209 23.6319 18.3022 23.6319C18.0211 23.6319 17.7401 23.6055 17.477 23.5638L19.1367 29.0906C19.8691 28.5285 20.7811 28.187 21.7766 28.187C24.161 28.187 26.0941 30.1295 26.0941 32.5131V32.5225L30.1485 30.8704ZM33.6306 22.9847C32.9161 22.9847 32.3362 23.5638 32.3362 24.2791C32.3362 24.9936 32.9161 25.5735 33.6306 25.5735C34.3459 25.5735 34.925 24.9936 34.925 24.2791C34.925 23.5638 34.3459 22.9847 33.6306 22.9847ZM33.6306 22.9847C32.9161 22.9847 32.3362 23.5638 32.3362 24.2791C32.3362 24.9936 32.9161 25.5735 33.6306 25.5735C34.3459 25.5735 34.925 24.9936 34.925 24.2791C34.925 23.5638 34.3459 22.9847 33.6306 22.9847ZM30.1485 30.8704C27.7888 29.6186 26.1793 27.1319 26.1793 24.2791C26.1793 21.8947 27.3034 19.7657 29.0576 18.4031L23.1987 17.1164C23.3358 17.5686 23.404 18.0361 23.404 18.5309C23.404 21.3403 21.1209 23.6319 18.3022 23.6319C18.0211 23.6319 17.7401 23.6055 17.477 23.5638L19.1367 29.0906C19.8691 28.5285 20.7811 28.187 21.7766 28.187C24.161 28.187 26.0941 30.1295 26.0941 32.5131V32.5225L30.1485 30.8704ZM21.7766 32.2926C21.6489 32.2926 21.5552 32.3862 21.5552 32.5131C21.5552 32.6332 21.6574 32.7354 21.7766 32.7354C21.8958 32.7354 21.9895 32.6332 21.9895 32.5131C21.9895 32.3862 21.8958 32.2926 21.7766 32.2926ZM21.7766 32.2926C21.6489 32.2926 21.5552 32.3862 21.5552 32.5131C21.5552 32.6332 21.6574 32.7354 21.7766 32.7354C21.8958 32.7354 21.9895 32.6332 21.9895 32.5131C21.9895 32.3862 21.8958 32.2926 21.7766 32.2926ZM30.1485 30.8704C27.7888 29.6186 26.1793 27.1319 26.1793 24.2791C26.1793 21.8947 27.3034 19.7657 29.0576 18.4031L23.1987 17.1164C23.3358 17.5686 23.404 18.0361 23.404 18.5309C23.404 21.3403 21.1209 23.6319 18.3022 23.6319C18.0211 23.6319 17.7401 23.6055 17.477 23.5638L19.1367 29.0906C19.8691 28.5285 20.7811 28.187 21.7766 28.187C24.161 28.187 26.0941 30.1295 26.0941 32.5131V32.5225L30.1485 30.8704ZM33.6306 22.9847C32.9161 22.9847 32.3362 23.5638 32.3362 24.2791C32.3362 24.9936 32.9161 25.5735 33.6306 25.5735C34.3459 25.5735 34.925 24.9936 34.925 24.2791C34.925 23.5638 34.3459 22.9847 33.6306 22.9847ZM33.6306 22.9847C32.9161 22.9847 32.3362 23.5638 32.3362 24.2791C32.3362 24.9936 32.9161 25.5735 33.6306 25.5735C34.3459 25.5735 34.925 24.9936 34.925 24.2791C34.925 23.5638 34.3459 22.9847 33.6306 22.9847ZM21.7766 32.2926C21.6489 32.2926 21.5552 32.3862 21.5552 32.5131C21.5552 32.6332 21.6574 32.7354 21.7766 32.7354C21.8958 32.7354 21.9895 32.6332 21.9895 32.5131C21.9895 32.3862 21.8958 32.2926 21.7766 32.2926ZM30.1485 30.8704C27.7888 29.6186 26.1793 27.1319 26.1793 24.2791C26.1793 21.8947 27.3034 19.7657 29.0576 18.4031L23.1987 17.1164C23.3358 17.5686 23.404 18.0361 23.404 18.5309C23.404 21.3403 21.1209 23.6319 18.3022 23.6319C18.0211 23.6319 17.7401 23.6055 17.477 23.5638L19.1367 29.0906C19.8691 28.5285 20.7811 28.187 21.7766 28.187C24.161 28.187 26.0941 30.1295 26.0941 32.5131V32.5225L30.1485 30.8704ZM33.6306 22.9847C32.9161 22.9847 32.3362 23.5638 32.3362 24.2791C32.3362 24.9936 32.9161 25.5735 33.6306 25.5735C34.3459 25.5735 34.925 24.9936 34.925 24.2791C34.925 23.5638 34.3459 22.9847 33.6306 22.9847ZM33.6306 22.9847C32.9161 22.9847 32.3362 23.5638 32.3362 24.2791C32.3362 24.9936 32.9161 25.5735 33.6306 25.5735C34.3459 25.5735 34.925 24.9936 34.925 24.2791C34.925 23.5638 34.3459 22.9847 33.6306 22.9847V22.9847Z"
        fill="#D16527" />
    <path fill-rule="evenodd" clip-rule="evenodd"
        d="M32.7028 31.6787L25.5742 34.5732C25.7531 34.242 25.8902 33.8843 25.9745 33.5011V33.4926L31.2543 31.3457C31.7141 31.5084 32.1995 31.6191 32.7028 31.6787"
        fill="#D16527" />
    <path fill-rule="evenodd" clip-rule="evenodd"
        d="M31.3994 17.1684C30.931 17.3132 30.4882 17.5082 30.0624 17.7475H30.0539L22.824 16.1635C22.6281 15.7888 22.3897 15.4473 22.1172 15.1416L31.3994 17.1684"
        fill="#D16527" />
    <path fill-rule="evenodd" clip-rule="evenodd"
        d="M18.4452 29.7542C18.2068 30.0438 18.0024 30.3674 17.8491 30.7072L15.457 22.7627C15.7798 22.9841 16.1298 23.1715 16.5036 23.2992L18.4452 29.7542"
        fill="#D16527" />
    <path fill-rule="evenodd" clip-rule="evenodd"
        d="M33.6329 26.4245C32.4501 26.4245 31.487 25.4622 31.487 24.2785C31.487 23.0948 32.4501 22.1325 33.6329 22.1325C34.8166 22.1325 35.7789 23.0948 35.7789 24.2785C35.7789 25.4622 34.8166 26.4245 33.6329 26.4245ZM33.6329 17.6787C29.9882 17.6787 27.0332 20.6337 27.0332 24.2785C27.0332 27.9233 29.9882 30.886 33.6329 30.886C37.2786 30.886 40.2327 27.9233 40.2327 24.2785C40.2327 20.6337 37.2786 17.6787 33.6329 17.6787V17.6787Z"
        fill="#D16527" />
    <path fill-rule="evenodd" clip-rule="evenodd"
        d="M18.3048 19.8248C17.5903 19.8248 17.0104 19.2449 17.0104 18.5304C17.0104 17.8151 17.5903 17.2275 18.3048 17.2275C19.0201 17.2275 19.5992 17.8151 19.5992 18.5304C19.5992 19.2449 19.0201 19.8248 18.3048 19.8248ZM18.3048 14.2725C15.9553 14.2725 14.0469 16.18 14.0469 18.5304C14.0469 20.8799 15.9553 22.7798 18.3048 22.7798C20.6551 22.7798 22.555 20.8799 22.555 18.5304C22.555 16.18 20.6551 14.2725 18.3048 14.2725V14.2725Z"
        fill="#D16527" />
    <path fill-rule="evenodd" clip-rule="evenodd"
        d="M21.7791 33.5864C21.183 33.5864 20.707 33.101 20.707 32.5126C20.707 31.9173 21.183 31.4404 21.7791 31.4404C22.3667 31.4404 22.8436 31.9173 22.8436 32.5126C22.8436 33.101 22.3667 33.5864 21.7791 33.5864ZM21.7791 29.0381C19.8554 29.0381 18.3047 30.5965 18.3047 32.5126C18.3047 34.4286 19.8554 35.9879 21.7791 35.9879C23.6952 35.9879 25.2451 34.4286 25.2451 32.5126C25.2451 30.5965 23.6952 29.0381 21.7791 29.0381V29.0381Z"
        fill="#D16527" />
    <path fill-rule="evenodd" clip-rule="evenodd"
        d="M37.1554 5.60346H37.812V0.570565H37.1554V5.60346ZM35.9547 5.60346H36.6104V0.570565H35.9547V5.60346ZM34.7625 5.60346H35.4182V0.570565H34.7625V5.60346ZM33.5618 5.60346H34.2175V0.570565H33.5618V5.60346ZM32.361 5.60346H33.0176V0.570565H32.361V5.60346ZM31.1603 5.60346H31.8245V0.570565H31.1603V5.60346ZM29.9689 5.60346H30.6238V0.570565H29.9689V5.60346ZM28.7674 5.60346H29.4231V0.570565H28.7674V5.60346ZM27.5666 5.60346H28.2224V0.570565H27.5666V5.60346ZM26.3659 5.60346H27.0301V0.570565H26.3659V5.60346ZM25.1737 5.60346H25.8294V0.570565H25.1737V5.60346ZM23.9738 5.60346H24.6287V0.570565H23.9738V5.60346ZM22.7722 5.60346H23.428V0.570565H22.7722V5.60346ZM21.58 5.60346H22.2366V0.570565H21.58V5.60346ZM20.3793 5.60346H21.035V0.570565H20.3793V5.60346ZM19.1794 5.60346H19.8343V0.570565H19.1794V5.60346ZM17.9787 5.60346H18.6421V0.570565H17.9787V5.60346ZM16.7856 5.60346H17.4422V0.570565H16.7856V5.60346ZM16.2832 6.1059H38.2795V0H16.2832V6.1059Z"
        fill="#D16527" />
    <path fill-rule="evenodd" clip-rule="evenodd" d="M21.6309 8.41069H32.9356V6.77734H21.6309V8.41069Z"
        fill="#D16527" />
    <path fill-rule="evenodd" clip-rule="evenodd"
        d="M21.2137 9.19755L21.0272 9.32529L3.40718 21.5533L2.77701 21.9884L0.605478 18.8375C-0.467513 17.2791 -0.0757862 15.1587 1.47494 14.0942L14.3415 5.2283C14.6821 4.9907 15.0568 4.8289 15.4315 4.73438V6.95787H19.6724L21.2137 9.19755"
        fill="#D16527" />
    <path fill-rule="evenodd" clip-rule="evenodd"
        d="M11.7438 28.5369H8.04024C7.03453 28.5369 6.65983 27.4213 6.65983 27.4213L3.81641 22.2939L8.12455 19.3057L11.7438 28.5369"
        fill="#D16527" />
    <path fill-rule="evenodd" clip-rule="evenodd"
        d="M53.9587 18.8375L51.7863 21.9884L51.1562 21.5533L46.0296 17.9945L33.537 9.32529L33.3496 9.19755L34.891 6.95787H39.1318V4.73438C39.5065 4.8289 39.8812 4.9907 40.2227 5.2283L53.0892 14.0942C54.6391 15.1587 55.0308 17.2791 53.9587 18.8375"
        fill="#D16527" />
    <path fill-rule="evenodd" clip-rule="evenodd"
        d="M50.7381 22.3034L47.9023 27.4215C47.9023 27.4215 47.5276 28.537 46.5227 28.537H42.8184L46.4299 19.3135L50.7381 22.3034"
        fill="#D16527" />
    </svg>