<svg xmlns="http://www.w3.org/2000/svg" width="48" height="40" viewBox="0 0 48 40" fill="none">
    <path fill-rule="evenodd" clip-rule="evenodd"
        d="M32.9904 23.2008H41.7957V20.859H32.9904V23.2008ZM21.0606 29.1363L24.0573 23.2179H21.0606L27.2933 16.0305L24.9856 21.4551L27.8128 21.387L21.0606 29.1363ZM15.4053 23.2008H12.1778V26.4283H9.83594V23.2008H6.59994V20.859H9.83594V17.6315H12.1778V20.859H15.4053V23.2008ZM2.19727 39.9173H46.1218V11.7471H2.19727V39.9173Z"
        fill="#EDEDED" />
    <path fill-rule="evenodd" clip-rule="evenodd" d="M0 10.0014H47.8171V6.6377H0V10.0014Z"
        fill="#EDEDED" />
    <path fill-rule="evenodd" clip-rule="evenodd"
        d="M11.0021 2.55474V5.46714H5.89258V2.55474C5.89258 1.14112 7.0337 0 8.44732 0C9.15413 0 9.7843 0.281021 10.2527 0.749391C10.7125 1.20924 11.0021 1.84793 11.0021 2.55474"
        fill="#EDEDED" />
    <path fill-rule="evenodd" clip-rule="evenodd"
        d="M41.795 2.55474V5.46714H36.6855V2.55474C36.6855 1.14112 37.8267 0 39.2403 0C39.9471 0 40.5858 0.281021 41.0456 0.749391C41.514 1.20924 41.795 1.84793 41.795 2.55474"
        fill="#EDEDED" />
</svg>