<svg width="14" height="12" viewBox="0 0 14 12" fill="none"
    xmlns="http://www.w3.org/2000/svg">
    <path
        d="M12.1543 3.48438C12.1543 3.61133 12.1543 3.71289 12.1543 3.83984C12.1543 7.36914 9.48828 11.4062 4.58789 11.4062C3.06445 11.4062 1.66797 10.9746 0.5 10.2129C0.703125 10.2383 0.90625 10.2637 1.13477 10.2637C2.37891 10.2637 3.52148 9.83203 4.43555 9.12109C3.26758 9.0957 2.27734 8.33398 1.94727 7.26758C2.125 7.29297 2.27734 7.31836 2.45508 7.31836C2.68359 7.31836 2.9375 7.26758 3.14062 7.2168C1.92188 6.96289 1.00781 5.89648 1.00781 4.60156V4.57617C1.36328 4.7793 1.79492 4.88086 2.22656 4.90625C1.49023 4.42383 1.0332 3.61133 1.0332 2.69727C1.0332 2.18945 1.16016 1.73242 1.38867 1.35156C2.70898 2.95117 4.68945 4.01758 6.89844 4.14453C6.84766 3.94141 6.82227 3.73828 6.82227 3.53516C6.82227 2.0625 8.01562 0.869141 9.48828 0.869141C10.25 0.869141 10.9355 1.17383 11.4434 1.70703C12.0273 1.58008 12.6113 1.35156 13.1191 1.04688C12.916 1.68164 12.5098 2.18945 11.9512 2.51953C12.4844 2.46875 13.0176 2.31641 13.4746 2.11328C13.1191 2.64648 12.6621 3.10352 12.1543 3.48438Z"
        fill="" />
</svg>