<svg width="40" height="40" viewBox="0 0 40 40" fill="none" xmlns="http://www.w3.org/2000/svg">
<g clip-path="url(#clip0_339_10722)">
<path d="M32.7929 39.5H0.5V7.20711L7.20711 0.5H39.5V32.7929L32.7929 39.5Z" stroke="#D16527"/>
<path d="M12.9375 20.9844L18.875 15.3984C19.0703 15.2031 19.3047 15.125 19.5 15.125C19.7344 15.125 19.9688 15.2031 20.1641 15.3594L26.1016 20.9844C26.4922 21.3359 26.4922 21.9219 26.1406 22.3125C25.7891 22.7031 25.2031 22.7031 24.8125 22.3516L19.5 17.3516L14.2266 22.3516C13.8359 22.7031 13.25 22.7031 12.8984 22.3125C12.5469 21.9219 12.5469 21.3359 12.9375 20.9844Z" fill="white"/>
</g>
<defs>
<clipPath id="clip0_339_10722">
<rect width="40" height="40" fill="white"/>
</clipPath>
</defs>
</svg>
