<svg width="40" height="40" viewBox="0 0 40 40" fill="none" xmlns="http://www.w3.org/2000/svg">
<g clip-path="url(#clip0_13_20114)">
<path d="M0 7V40H33L40 33V0H7L3.5 3.5L0 7Z" fill="#D16527"/>
<path d="M26.0625 19.0156L20.125 24.6016C19.9297 24.7969 19.6953 24.875 19.5 24.875C19.2656 24.875 19.0312 24.7969 18.8359 24.6406L12.8984 19.0156C12.5078 18.6641 12.5078 18.0781 12.8594 17.6875C13.2109 17.2969 13.7969 17.2969 14.1875 17.6484L19.5 22.6484L24.7734 17.6484C25.1641 17.2969 25.75 17.2969 26.1016 17.6875C26.4531 18.0781 26.4531 18.6641 26.0625 19.0156Z" fill="white"/>
</g>
<defs>
<clipPath id="clip0_13_20114">
<rect width="40" height="40" fill="white"/>
</clipPath>
</defs>
</svg>
