<svg width="13" height="12" viewBox="0 0 13 12" fill="none"
    xmlns="http://www.w3.org/2000/svg">
    <path
        d="M6.5 3.20508C8.09961 3.20508 9.41992 4.52539 9.41992 6.125C9.41992 7.75 8.09961 9.04492 6.5 9.04492C4.875 9.04492 3.58008 7.75 3.58008 6.125C3.58008 4.52539 4.875 3.20508 6.5 3.20508ZM6.5 8.0293C7.54102 8.0293 8.37891 7.19141 8.37891 6.125C8.37891 5.08398 7.54102 4.24609 6.5 4.24609C5.43359 4.24609 4.5957 5.08398 4.5957 6.125C4.5957 7.19141 5.45898 8.0293 6.5 8.0293ZM10.207 3.10352C10.207 3.48438 9.90234 3.78906 9.52148 3.78906C9.14062 3.78906 8.83594 3.48438 8.83594 3.10352C8.83594 2.72266 9.14062 2.41797 9.52148 2.41797C9.90234 2.41797 10.207 2.72266 10.207 3.10352ZM12.1367 3.78906C12.1875 4.72852 12.1875 7.54688 12.1367 8.48633C12.0859 9.40039 11.8828 10.1875 11.2227 10.873C10.5625 11.5332 9.75 11.7363 8.83594 11.7871C7.89648 11.8379 5.07812 11.8379 4.13867 11.7871C3.22461 11.7363 2.4375 11.5332 1.75195 10.873C1.0918 10.1875 0.888672 9.40039 0.837891 8.48633C0.787109 7.54688 0.787109 4.72852 0.837891 3.78906C0.888672 2.875 1.0918 2.0625 1.75195 1.40234C2.4375 0.742188 3.22461 0.539062 4.13867 0.488281C5.07812 0.4375 7.89648 0.4375 8.83594 0.488281C9.75 0.539062 10.5625 0.742188 11.2227 1.40234C11.8828 2.0625 12.0859 2.875 12.1367 3.78906ZM10.918 9.47656C11.2227 8.74023 11.1465 6.96289 11.1465 6.125C11.1465 5.3125 11.2227 3.53516 10.918 2.77344C10.7148 2.29102 10.334 1.88477 9.85156 1.70703C9.08984 1.40234 7.3125 1.47852 6.5 1.47852C5.66211 1.47852 3.88477 1.40234 3.14844 1.70703C2.64062 1.91016 2.25977 2.29102 2.05664 2.77344C1.75195 3.53516 1.82812 5.3125 1.82812 6.125C1.82812 6.96289 1.75195 8.74023 2.05664 9.47656C2.25977 9.98438 2.64062 10.3652 3.14844 10.5684C3.88477 10.873 5.66211 10.7969 6.5 10.7969C7.3125 10.7969 9.08984 10.873 9.85156 10.5684C10.334 10.3652 10.7402 9.98438 10.918 9.47656Z"
        fill="" />
</svg>