<svg width="13" height="12" viewBox="0 0 13 12" fill="none"
    xmlns="http://www.w3.org/2000/svg">
    <path
        d="M10.4609 2.11328C11.5273 3.17969 12.1875 4.57617 12.1875 6.09961C12.1875 9.19727 9.59766 11.7363 6.47461 11.7363C5.53516 11.7363 4.62109 11.4824 3.7832 11.0508L0.8125 11.8125L1.59961 8.89258C1.11719 8.05469 0.837891 7.08984 0.837891 6.07422C0.837891 2.97656 3.37695 0.4375 6.47461 0.4375C7.99805 0.4375 9.41992 1.04688 10.4609 2.11328ZM6.47461 10.7715C9.06445 10.7715 11.2227 8.66406 11.2227 6.09961C11.2227 4.83008 10.6895 3.66211 9.80078 2.77344C8.91211 1.88477 7.74414 1.40234 6.5 1.40234C3.91016 1.40234 1.80273 3.50977 1.80273 6.07422C1.80273 6.96289 2.05664 7.82617 2.51367 8.58789L2.64062 8.76562L2.1582 10.4922L3.93555 10.0098L4.08789 10.1113C4.82422 10.543 5.63672 10.7715 6.47461 10.7715ZM9.06445 7.26758C9.19141 7.34375 9.29297 7.36914 9.31836 7.44531C9.36914 7.49609 9.36914 7.77539 9.24219 8.10547C9.11523 8.43555 8.55664 8.74023 8.30273 8.76562C7.8457 8.8418 7.49023 8.81641 6.60156 8.41016C5.17969 7.80078 4.26562 6.37891 4.18945 6.30273C4.11328 6.20117 3.63086 5.54102 3.63086 4.83008C3.63086 4.14453 3.98633 3.81445 4.11328 3.66211C4.24023 3.50977 4.39258 3.48438 4.49414 3.48438C4.57031 3.48438 4.67188 3.48438 4.74805 3.48438C4.84961 3.48438 4.95117 3.45898 5.07812 3.73828C5.17969 4.01758 5.48438 4.70312 5.50977 4.7793C5.53516 4.85547 5.56055 4.93164 5.50977 5.0332C5.25586 5.56641 4.95117 5.54102 5.10352 5.79492C5.66211 6.73438 6.19531 7.06445 7.0332 7.4707C7.16016 7.54688 7.23633 7.52148 7.33789 7.44531C7.41406 7.34375 7.69336 7.01367 7.76953 6.88672C7.87109 6.73438 7.97266 6.75977 8.09961 6.81055C8.22656 6.86133 8.91211 7.19141 9.06445 7.26758Z"
        fill="" />
</svg>