<?xml version="1.0" standalone="no"?>
<!DOCTYPE svg PUBLIC "-//W3C//DTD SVG 20010904//EN"
 "http://www.w3.org/TR/2001/REC-SVG-20010904/DTD/svg10.dtd">
<svg version="1.0" xmlns="http://www.w3.org/2000/svg"
 width="70.000000pt" height="70.000000pt" viewBox="0 0 70.000000 70.000000"
 preserveAspectRatio="xMidYMid meet">
<metadata>
Created by potrace 1.14, written by Peter Selinger 2001-2017
</metadata>
<g transform="translate(0.000000,70.000000) scale(0.100000,-0.100000)"
fill="#000000" stroke="none">
<path d="M253 686 c-103 -34 -176 -98 -222 -196 -22 -46 -26 -69 -26 -140 0
-76 4 -93 33 -152 38 -77 92 -130 171 -167 47 -22 70 -26 141 -26 71 0 94 4
141 26 79 37 133 90 171 167 29 59 33 76 33 152 0 76 -3 92 -33 152 -58 117
-166 188 -296 195 -42 2 -88 -3 -113 -11z m220 -109 c93 -55 145 -151 134
-252 -22 -216 -287 -312 -441 -159 -52 52 -71 101 -71 184 0 85 20 133 77 187
79 76 210 93 301 40z"/>
<path d="M260 509 c-37 -23 -70 -56 -70 -71 0 -12 55 -10 84 3 13 6 27 22 30
34 3 13 9 30 12 39 9 22 -14 20 -56 -5z m40 -7 c0 -5 -10 -14 -22 -20 -13 -7
-34 -19 -47 -29 -23 -17 -24 -17 -11 3 20 33 80 66 80 46z"/>
<path d="M390 503 c15 -51 21 -61 43 -67 33 -9 77 -7 77 2 0 15 -33 48 -70 71
-48 29 -61 28 -50 -6z m50 -10 c27 -19 51 -46 45 -52 -2 -2 -18 8 -35 23 -17
14 -36 26 -41 26 -5 0 -9 5 -9 10 0 14 12 12 40 -7z"/>
<path d="M307 414 c-8 -8 1 -24 14 -24 5 0 9 7 9 15 0 15 -12 20 -23 9z"/>
<path d="M376 413 c-11 -11 -6 -23 9 -23 8 0 15 4 15 9 0 13 -16 22 -24 14z"/>
<path d="M337 365 c-20 -19 -14 -35 13 -35 26 0 32 13 17 35 -13 16 -14 16
-30 0z"/>
<path d="M169 363 c-4 -29 6 -74 24 -106 l22 -39 12 29 c7 15 12 38 13 51 0
31 -67 93 -71 65z m41 -66 c7 -21 10 -41 7 -44 -8 -7 -23 26 -32 67 -9 45 8
29 25 -23z"/>
<path d="M277 364 c-8 -8 1 -24 14 -24 5 0 9 7 9 15 0 15 -12 20 -23 9z"/>
<path d="M487 345 c-29 -28 -33 -54 -14 -98 l12 -29 23 41 c25 43 35 111 18
111 -6 0 -24 -11 -39 -25z m23 -50 c-6 -19 -16 -35 -21 -35 -10 0 -6 20 14 70
14 37 21 6 7 -35z"/>
<path d="M402 351 c4 -13 18 -16 19 -4 0 4 -5 9 -11 12 -7 2 -11 -2 -8 -8z"/>
<path d="M307 304 c-8 -8 1 -24 14 -24 5 0 9 7 9 15 0 15 -12 20 -23 9z"/>
<path d="M370 295 c0 -8 5 -15 10 -15 6 0 10 7 10 15 0 8 -4 15 -10 15 -5 0
-10 -7 -10 -15z"/>
<path d="M313 223 c-29 -11 -10 -23 38 -23 31 0 48 -4 44 -10 -9 -14 -78 -13
-93 2 -8 8 -15 9 -23 1 -17 -17 58 -31 111 -20 l45 9 -30 24 c-28 22 -64 29
-92 17z"/>
</g>
</svg>
